# xmcd CD database file generated by Grip 2.95
# 
# Track frame offsets:
#       187
#       21917
#       45187
#       68072
#       88500
#       110307
#       129420
#       146135
#       166497
#       184155
#       204792
#       222375
#       238347
#       256822
# 
# Disc length: 3603 seconds
# 
# Revision: 3
# Processed by: cddbd v1.4b41PL1 Copyright (c) Steve Scherf et al.
# Submitted via: Grip 2.95
# 
DISCID=c10e110e
DTITLE=Jonny Lang - Wander This World
DYEAR=1900
DGENRE=
TTITLE0=Still Rainin'
TTITLE1=Second Guessing
TTITLE2=I Am
TTITLE3=Breakin' Me
TTITLE4=Wander This World
TTITLE5=Walking Away
TTITLE6=The Levee
TTITLE7=Angel Of Mercy
TTITLE8=Right Back
TTITLE9=Leaving To Stay
TTITLE10=Before You Hit The Ground
TTITLE11=Cherry Red Wine
TTITLE12=Stop Pushin' On Me
TTITLE13=If This Is Love
EXTD=
EXTT0=
EXTT1=
EXTT2=
EXTT3=
EXTT4=
EXTT5=
EXTT6=
EXTT7=
EXTT8=
EXTT9=
EXTT10=
EXTT11=
EXTT12=
EXTT13=
PLAYORDER=
